<?xml version="1.0" encoding="UTF-8" standalone="no"?>
<!DOCTYPE svg PUBLIC "-//W3C//DTD SVG 1.1//EN" "http://www.w3.org/Graphics/SVG/1.1/DTD/svg11.dtd">
<svg width="100%" height="100%" viewBox="0 0 1306 736" version="1.1" xmlns="http://www.w3.org/2000/svg" xmlns:xlink="http://www.w3.org/1999/xlink" xml:space="preserve" xmlns:serif="http://www.serif.com/" style="fill-rule:evenodd;clip-rule:evenodd;stroke-linecap:round;stroke-linejoin:round;stroke-miterlimit:1.5;">
    <g transform="matrix(1,0,0,1,-437,-364)">
        <g id="Logo">
            <g id="g26" transform="matrix(1,0,0,1,-110.573,63.6369)">
                <g transform="matrix(1,0,0,1,81.0136,56.4286)">
                    <path d="M505.719,680.162C504.505,666.505 507.544,655.964 514.841,652.635C520.702,649.96 528.279,652.41 535.968,658.593L536.907,658.32C536.603,658.412 536.298,658.509 535.991,658.611C542.004,663.452 548.084,670.572 553.466,679.309C564.08,692.411 572.878,706.87 567.345,709.236C567.106,709.338 566.867,709.442 566.629,709.549C572.259,730.217 570.159,747.813 560.323,752.302C552.144,756.034 540.625,749.788 530.121,737.346C522.445,743.401 514.562,748.262 506.015,749.444C481.385,752.851 473.952,725.305 481.983,709.67C486.185,701.49 494.923,694.045 500.482,686.459C501.948,684.458 503.72,682.327 505.719,680.162ZM632.712,577.3L638.445,554.707C638.445,554.707 655.983,558.897 676.675,563.409C673.693,560.48 671.957,557.498 671.75,554.5C670.057,530.017 618.273,550.833 603.752,544.363C589.237,537.892 568.299,514.437 568.401,500.021C568.497,485.604 579.496,486.129 595.021,464.871C610.54,443.613 616.675,441.846 620.216,408.556C623.354,379.066 617.641,357.993 643.973,332.674C648.129,328.677 652.938,325.118 658.214,321.951C647.696,277.345 644.567,251.867 683.679,256.884C693.125,258.095 723.883,273.929 729.119,300.356C748.904,297.757 766.272,297.446 775.17,297.958C777.951,298.118 780.671,298.366 783.333,298.697C792.664,272.05 833.02,249.87 863.314,269.356C867.804,302.798 864.29,283.466 852.083,332.67C853.67,334.194 855.219,335.744 856.731,337.316C876.468,357.829 897.036,390.827 891.948,417.78C886.771,445.155 952.616,531.281 910.803,532.017C880.508,532.55 838.813,538.41 832.33,556.448C844.396,553.408 852.402,551.217 852.402,551.217L861.833,574.401C861.833,574.401 854.401,577.922 842.752,582.664C843.13,583.059 843.517,583.457 843.915,583.858C851.808,580.535 859.809,576.784 867.918,572.58C868.785,572.129 926.822,590.521 961.602,619.09C967.182,623.674 970.052,630.661 970.901,638.998C975.618,640.771 981.431,643.299 984.192,647.146C991.586,657.434 1013.37,687.573 993.688,698.028C986.566,701.811 972.598,696.796 960.115,690.354C948.275,718.191 929.99,741.767 921.024,736.88C912.528,731.133 887.261,711.721 870.968,731.173C867.848,748.955 862.975,758.624 859.372,766.744C860.585,766.786 861.771,766.83 862.93,766.875C863.957,766.915 864.844,767.251 865.604,767.828C880.635,761.926 901.306,759.57 920.787,757.932C948.513,755.601 982.514,775.529 982.514,775.529L975.136,795.257C975.136,795.257 943.47,773.298 926.547,775.727C919.033,776.806 906.006,780.177 893.264,783.82C901.392,789.649 909.468,796.459 916.987,803.386C945.88,830.004 955.159,867.672 947.893,859.642L928.679,868.273C928.679,868.273 926.923,858.193 923.077,847.403C923.066,847.577 923.039,847.74 922.996,847.89C921.794,852.1 914.816,856.096 903.495,859.692C914.14,874.046 912.647,894.366 909.861,901.868C908.79,904.749 906.31,907.532 902.748,910.164C904.734,914.358 904.707,917.611 905.614,923.277C908.427,940.843 826.749,954.146 807.298,937.065C805.887,935.826 805.143,933.808 804.897,931.383C792.024,930.494 782.106,927.581 778.48,922.103C768.531,907.071 780.32,884.278 765.577,884.449C749.366,884.636 764.722,904.714 743.525,923.071C739.683,926.398 723.651,931.414 702.606,935.495C704.804,940.591 704.772,946.263 701.441,952.439C685.848,981.35 555.618,968.118 577.626,930.642C570.332,926.053 565.308,919.905 563.525,911.841C560.83,899.658 572.483,877.749 584.384,859.234C583.517,858.989 582.657,858.742 581.803,858.492C565.745,858.045 595.301,821.606 611.879,812.679C614.017,811.527 615.804,809.78 617.271,807.579C614.125,807.071 612.137,806.5 611.52,805.861C606.38,800.548 610.654,779.857 612.783,773.51C613.037,772.751 616.306,772.029 621.954,771.352C619.774,755.254 613.523,740.795 606.024,740.862C602.88,736.478 539.998,762.995 558.241,754.626C600.726,735.134 551.152,635.866 515.694,649.379C515.694,649.379 551.101,587.344 632.006,576.951C632.241,577.067 632.477,577.184 632.712,577.3ZM920.956,841.942C917.991,834.941 914.118,828.307 909.244,824.616C901.034,818.399 882.38,806.261 867.419,796.962C866.826,799.108 866.142,800.941 865.417,802.254C864.959,803.085 862.456,803.864 858.287,804.587C858.511,805.301 858.746,806.03 858.993,806.775C889.119,809.53 913.767,830.611 920.956,841.942ZM548.487,666.216C549.925,666.216 551.092,666.843 551.092,667.615C551.092,668.387 549.925,669.014 548.487,669.014C547.05,669.014 545.882,668.387 545.882,667.615C545.882,666.843 547.05,666.216 548.487,666.216Z" style="stroke:white;stroke-width:23px;"/>
                </g>
                <g transform="matrix(1,0,0,1,81.0136,56.4286)">
                    <g id="g7" transform="matrix(0.619794,0,0,1,250.173,4.40083)">
                        <g id="g5" transform="matrix(-1.20594,0,0,1,2454.1,-298.1)">
                            <path id="path5" d="M1230.14,627.677C1213.46,576.823 1208.62,596.79 1214.68,563.055C1260.64,540.962 1323.9,572.432 1324.34,603.245C1324.81,634.986 1238.33,652.62 1230.14,627.677Z" style="stroke:black;stroke-width:6.66px;"/>
                        </g>
                        <g id="g1" transform="matrix(1.03122,0,0,1,-567.865,-257.022)">
                            <path id="path1" d="M1554.79,670.401C1562.75,643.448 1530.57,610.45 1499.69,589.937C1468.81,569.424 1428.26,552.645 1372.08,550.579C1337.19,549.296 1219.06,553.182 1166.81,585.295C1125.61,610.614 1134.55,631.687 1129.64,661.177C1124.1,694.467 1114.5,696.234 1090.22,717.492C1065.93,738.75 1048.72,738.225 1048.57,752.642C1048.41,767.058 1081.17,790.513 1103.88,796.984C1126.6,803.454 1207.62,782.638 1210.27,807.121C1214.1,842.625 1553.42,875.934 1493.12,844.255C1404.86,797.892 1514.12,785.427 1584.29,784.638C1649.71,783.902 1546.69,697.776 1554.79,670.401Z" style="fill:rgb(201,155,84);stroke:black;stroke-width:17.44px;"/>
                        </g>
                        <path id="path2" d="M608.213,407.001C605.677,422.423 596.762,426.925 588.077,441.011C568.462,472.826 514.246,479.343 535.15,514.003C557.812,551.578 600.17,518.506 639.595,531.647C650.346,535.231 687.774,575.288 697.908,578.666C703.534,580.541 770.212,586.313 778.448,581.83C794.51,573.087 760.494,539.082 760.494,539.082L793.937,522.994C781.495,510.677 765.108,507.812 742.651,505.591C744.827,494.644 747.868,488.866 782.399,487.587C770.173,462.219 736.572,468.02 728.897,466.399C726.327,460.397 734.195,444.289 771.701,435.692C751.703,423.22 724.747,422.863 703.095,425.678C698.013,420.572 697.672,399.36 702.996,389.39C681.709,393.26 661.814,401.605 645.372,412.008C639.696,403.501 626.96,389.654 622.057,376.728C605.73,384.58 610.99,390.111 608.213,407.001Z" style="fill:white;"/>
                        <g id="g3" transform="matrix(1,0,0,1,-535.127,-257.022)">
                            <path id="path3" d="M1045.32,747.976C1046.86,733.866 1069.1,722.652 1076.83,731.142C1084.57,739.631 1060.56,765.078 1080.76,762.077C1100.95,759.077 1136.59,787.735 1139.4,768.792C1141.5,754.719 1133.41,753.567 1127.64,748.494C1125.64,746.738 1121.31,744.693 1119.5,741.132C1112.44,727.281 1130.34,684.906 1157.76,688.037C1185.17,691.168 1190.36,703.898 1213.94,713.698C1237.51,723.498 1231.09,748.662 1237.91,766.915C1255.17,813.119 1229.1,869.534 1221.63,877.846C1214.16,886.159 1197.74,844.152 1193.1,816.791C1187.11,781.51 1167.1,793.216 1144.83,795.293C1122.56,797.369 1102.83,802.67 1084.71,792.447C1066.6,782.224 1044.46,755.914 1045.32,747.976Z" style="stroke:black;stroke-width:7.07px;"/>
                        </g>
                        <g id="g4" transform="matrix(1.1858,0,0,1,-796.427,-299.958)">
                            <path id="path4" d="M1230.14,627.677C1213.46,576.823 1204.34,547.055 1261.48,552.441C1275.48,553.76 1323.89,572.431 1324.34,603.245C1324.81,634.986 1238.33,652.62 1230.14,627.677Z" style="stroke:black;stroke-width:6.7px;"/>
                        </g>
                    </g>
                    <g id="g20" transform="matrix(0.94887,0,0,0.878734,30.0863,94.2541)">
                        <g id="g8" transform="matrix(0.963211,0,0,0.921056,24.986,48.8325)">
                            <path id="path7" d="M651.762,576.208C650.503,575.923 651.118,575.986 649.92,575.986" style="fill:none;stroke:black;stroke-width:6.81px;"/>
                        </g>
                        <g id="g9" transform="matrix(0.963211,0,0,0.921056,24.986,48.8325)">
                            <path id="path8" d="M649.587,575.755C650.112,574.76 649.92,573.646 649.92,572.535" style="fill:none;stroke:black;stroke-width:6.81px;"/>
                        </g>
                        <g id="g10" transform="matrix(0.728003,-0.358735,0.437528,1.0353,-173.379,156.093)">
                            <ellipse id="ellipse9" cx="547.606" cy="707.525" rx="32.855" ry="54.777" style="fill:rgb(128,128,128);fill-opacity:0.96;stroke:black;stroke-width:15.8px;"/>
                        </g>
                        <g id="g11" transform="matrix(1.30592,0.0126244,-0.0103439,1.24764,-118.838,-173.014)">
                            <path id="path10" d="M505.14,648.059C494.612,651.775 481.997,664.519 475.95,674.021C471.519,680.985 464.522,687.846 461.19,695.341C454.823,709.667 461.02,734.729 480.87,731.421C498.806,728.431 512.927,702.735 530.069,694.248C537.405,690.616 513.048,657.299 502.736,648.875" style="stroke:black;stroke-width:5.02px;"/>
                        </g>
                        <g id="g12" transform="matrix(0.958329,-0.473496,0.438497,1.03482,-288.154,406.697)">
                            <path id="path11" d="M858.702,751.207C875.964,744.376 904.944,753.474 931.126,762.89C957.308,772.306 979.935,804.574 979.935,804.574L965.017,819.444C965.017,819.444 945.359,786.3 928.96,781.468C912.561,776.636 865.903,770.743 858.786,770.359C851.67,769.975 841.44,758.038 858.702,751.207Z" style="stroke:black;stroke-width:14.02px;"/>
                        </g>
                        <g id="g13" transform="matrix(0.985729,0.402601,-0.372842,1.06441,301.291,-379.907)">
                            <path id="path12" d="M858.702,751.207C875.964,744.376 905.317,752.496 931.126,762.89C967.567,777.565 989.572,809.514 979.935,804.574L965.017,819.444C965.017,819.444 947.793,790.318 931.394,785.486C914.995,780.654 865.903,770.743 858.786,770.359C851.67,769.975 841.44,758.038 858.702,751.207Z" style="stroke:black;stroke-width:14.02px;"/>
                        </g>
                        <g id="g14" transform="matrix(0.963211,0,0,0.921056,-10.5354,43.1221)">
                            <path id="path13" d="M1031.2,624.27C1028.36,624.312 1036.93,624.824 1039.56,625.915C1044.84,628.119 1051.69,631.312 1054.86,636.302C1062.95,649.013 1086.78,686.251 1065.25,699.168C1050.91,707.77 1011.2,679.557 1002.93,671.288C1000.67,669.028 1007.49,660.554 1008.4,659.262C1016.35,647.894 1024.24,636.311 1031.9,624.822" style="stroke:black;stroke-width:6.81px;"/>
                        </g>
                        <g id="g15" transform="matrix(1.04319,0.222673,-0.206282,1.12682,172.226,-280.399)">
                            <path id="path14" d="M582.737,975.799C561.542,1019.79 696.319,1007.79 706.138,976C715.14,946.853 664.249,939.356 642.48,941.895C612.513,945.39 594.44,951.508 582.737,975.799Z" style="stroke:black;stroke-width:5.82px;"/>
                        </g>
                        <g id="path15" transform="matrix(0.815831,-0.160548,0.132466,0.784869,37.0105,306.042)">
                            <g id="g16">
                                <path id="path151" serif:id="path15" d="M812.748,953.885C805.982,954.038 789.975,985.095 797.054,995.125C817.481,1024.07 922.631,1026.29 923.117,1000.92C923.322,990.229 924.581,985.724 920.384,975.231C912.569,955.694 901.942,962.336 882.664,958.831C858.342,954.409 835.395,953.364 811.052,953.364" style="stroke:black;stroke-width:7.89px;"/>
                            </g>
                        </g>
                        <path id="path16" d="M684.408,834.864C660.663,834.925 601.977,842.729 600.635,844.724C586.714,865.413 557.994,909.961 562.183,930.414C574.678,991.416 738.068,956.112 751.882,943.194C774.222,922.304 758.038,899.455 775.123,899.242C790.66,899.048 778.236,924.987 788.721,942.093C803.515,966.229 917.712,946.595 927.181,919.065C931.36,906.917 932.777,865.237 898.512,855.602C855.442,843.491 817.356,834.456 773.886,834.728C744.06,834.915 714.234,834.788 684.408,834.864Z" style="fill:white;stroke:black;stroke-width:14.67px;"/>
                        <g id="g17" transform="matrix(1.05388,0,0,1.138,-31.7075,-107.261)">
                            <ellipse id="ellipse16" cx="548.49" cy="667.615" rx="2.605" ry="1.399" style="stroke:black;stroke-width:14.02px;"/>
                        </g>
                        <g id="g18" transform="matrix(1.01577,0,0,0.942397,-13.5173,26.2864)">
                            <path id="path17" d="M637.813,554.992C553.872,567.543 517.137,642.454 517.137,642.454C553.925,626.136 605.359,746.008 561.28,769.546C542.353,779.652 607.594,747.631 610.856,752.925C626.862,752.757 637.389,826.825 616.931,839.648C599.731,850.428 569.066,894.43 585.726,894.97C701.929,934.574 932.124,913.15 939.722,882.167C941.663,874.251 911.799,836.614 873.318,832.519C860.65,788.077 878.172,791.445 885.742,741.225C902.646,717.735 928.861,741.176 937.676,748.116C956.076,759.79 1012.31,636.983 979.777,605.878C943.692,571.379 883.477,549.17 882.577,549.714C787.295,607.202 706.494,594.628 637.813,554.992Z" style="fill:white;stroke:black;stroke-width:16.29px;"/>
                        </g>
                        <path id="path18" d="M635.029,550.003L641.14,523.995C641.14,523.995 732.361,547.532 748.589,546.324C787.399,543.436 866.626,520.024 866.626,520.024L876.565,546.407C876.565,546.407 816.901,576.929 768.818,582.971C689.761,592.906 635.029,550.003 635.029,550.003Z" style="fill:white;stroke:black;stroke-width:15.34px;"/>
                        <g id="g19" transform="matrix(0.963211,0,0,0.921056,26.9872,93.8674)">
                            <path id="path19" d="M609.532,737.335C611.652,730.197 804.795,725.666 883.228,729.137C893.904,729.609 890.758,763.012 885.949,772.849C883.312,778.243 818.865,781.886 752.691,782.997C683.611,784.156 612.648,782.556 608.15,777.306C602.526,770.741 607.203,745.177 609.532,737.335Z" style="stroke:black;stroke-width:6.81px;"/>
                        </g>
                    </g>
                    <g id="g25" transform="matrix(0.403556,0.126076,-0.118337,0.378783,440.188,78.1501)">
                        <g id="g21" transform="matrix(0.119148,1.00897,0.968905,-0.188047,281.51,-81.6037)">
                            <path id="path20" d="M1330.5,895.868C1281.4,900.599 1221.24,855.682 1214.75,776.982C1209.77,716.614 1249.27,623.073 1330.86,582.546C1355.64,570.24 1384.3,562.822 1416.77,562.706C1533.24,562.292 1644.36,663.071 1625.76,781.059C1625.76,781.059 1634.37,649.783 1510.11,654.98C1442.32,657.816 1417.52,737.801 1418,771.008C1418.59,811.326 1381.99,890.907 1330.5,895.868Z" style="fill:white;stroke:black;stroke-width:12.21px;"/>
                        </g>
                        <g id="g22" transform="matrix(-0.121258,-1.00856,-0.968643,0.190245,2119.23,2494.05)">
                            <path id="path21" d="M1342.17,888.024C1261.95,898.201 1224.64,851.357 1214.75,776.982C1205.76,709.468 1258.86,599.384 1363.08,570.068C1379.69,565.395 1397.6,562.774 1416.77,562.706C1533.24,562.292 1631.79,637.605 1631.96,780.385C1631.96,780.385 1618.6,649.616 1520.37,650.856C1464.79,651.558 1434.36,702.455 1427.59,752.847C1416.5,835.48 1397.91,880.953 1342.17,888.024Z" style="fill:rgb(12,26,205);stroke:black;stroke-opacity:0.9;stroke-width:13.34px;"/>
                        </g>
                        <g id="g23" transform="matrix(0.503331,-0.123529,0.0991354,0.458502,440.02,1326.66)">
                            <path id="path22" d="M1404.79,337.32C1452.57,318.91 1481.2,271.896 1481.2,271.896C1481.2,271.896 1382.53,457.793 1389.83,491.082C1397.14,524.456 1485.82,556.75 1504.2,548.99C1516.49,543.798 1535.88,504.762 1536.42,487.495C1536.82,474.523 1524.85,463.019 1512.09,468.945C1499.49,474.796 1494.2,510.769 1481.36,500.112C1467.8,488.856 1450.21,481.318 1450.16,473.6C1449.62,401.355 1548.17,285.266 1559.35,240.872C1569.13,202 1525.02,173.787 1466.63,207.796C1398.17,247.662 1367.04,296.317 1367.04,296.317C1367.04,296.317 1383.19,345.644 1404.79,337.32Z" style="fill:white;"/>
                        </g>
                        <g id="path23" transform="matrix(0.530341,-1.28247e-16,4.08591e-08,0.542805,238.797,792.337)">
                            <g id="g24">
                                <path id="path231" serif:id="path23" d="M1839.01,444.399C1767.69,425.633 1692.86,419.383 1681.56,532.173C1670.25,644.963 1666.97,733.017 1746.65,744.568C1825.4,755.985 1878.48,686.684 1892.43,609.235C1908.3,521.148 1889.08,457.576 1839.01,444.399ZM1789.46,483.913C1742.26,479.964 1724.76,522.257 1720.94,574.182C1714.85,656.964 1714.82,682.534 1760.68,690.922C1806.55,699.309 1842.71,653.244 1849.51,577.211C1856.32,501.178 1837.61,487.942 1789.46,483.913Z" style="fill:rgb(3,0,0);"/>
                            </g>
                        </g>
                        <g transform="matrix(2.30065,-0.765758,0.718753,2.45111,-745.232,52.1111)">
                            <circle cx="636.779" cy="671.846" r="85.849" style="fill:none;stroke:rgb(24,16,16);stroke-width:15.7px;"/>
                        </g>
                    </g>
                    <path id="path25" d="M604.734,740.797C603.278,740.005 603.907,738.629 604.88,737.656C613.396,729.14 620.097,710.397 633.956,710.397" style="fill:none;stroke:black;stroke-width:15.24px;"/>
                    <path id="path26" d="M608.726,746.937C600.637,745.537 652.129,727.568 652.129,743.108" style="fill:none;stroke:black;stroke-width:15.24px;"/>
                </g>
            </g>
            <g transform="matrix(3.33495,0,0,3.33495,951.944,747.498)">
                <g id="text29">
                    <g>
                        <path d="M28.151,-15.362L28.151,-12.032C28.151,-10.368 27.836,-8.791 27.205,-7.303C26.575,-5.814 25.704,-4.49 24.595,-3.33C23.485,-2.169 22.186,-1.249 20.697,-0.568C19.209,0.114 17.607,0.454 15.892,0.454C14.429,0.454 12.941,0.252 11.427,-0.151C9.913,-0.555 8.551,-1.261 7.341,-2.27C6.13,-3.279 5.133,-4.578 4.351,-6.168C3.569,-7.757 3.178,-9.787 3.178,-12.259L3.178,-41.924C3.178,-43.69 3.481,-45.33 4.086,-46.843C4.692,-48.357 5.55,-49.668 6.659,-50.778C7.769,-51.888 9.094,-52.758 10.632,-53.389C12.171,-54.02 13.874,-54.335 15.741,-54.335C19.373,-54.335 22.324,-53.149 24.595,-50.778C25.704,-49.618 26.575,-48.243 27.205,-46.654C27.836,-45.065 28.151,-43.337 28.151,-41.47L28.151,-38.443L20.432,-38.443L20.432,-41.016C20.432,-42.53 20.004,-43.841 19.146,-44.951C18.288,-46.061 17.128,-46.616 15.665,-46.616C13.748,-46.616 12.474,-46.023 11.843,-44.838C11.213,-43.652 10.897,-42.151 10.897,-40.335L10.897,-12.789C10.897,-11.225 11.238,-9.913 11.919,-8.854C12.6,-7.795 13.823,-7.265 15.589,-7.265C16.094,-7.265 16.636,-7.353 17.216,-7.53C17.796,-7.706 18.339,-7.996 18.843,-8.4C19.297,-8.804 19.676,-9.359 19.978,-10.065C20.281,-10.771 20.432,-11.654 20.432,-12.713L20.432,-15.362L28.151,-15.362Z" style="fill:rgb(1,0,0);"/>
                        <path d="M33.297,-25.503C33.297,-27.067 33.398,-28.504 33.6,-29.816C33.802,-31.128 34.18,-32.288 34.735,-33.297C35.643,-34.962 36.942,-36.299 38.632,-37.308C40.322,-38.317 42.378,-38.822 44.8,-38.822C47.222,-38.822 49.277,-38.317 50.967,-37.308C52.658,-36.299 53.957,-34.962 54.865,-33.297C55.42,-32.288 55.798,-31.128 56,-29.816C56.202,-28.504 56.303,-27.067 56.303,-25.503L56.303,-12.865C56.303,-11.301 56.202,-9.863 56,-8.551C55.798,-7.24 55.42,-6.079 54.865,-5.07C53.957,-3.405 52.658,-2.068 50.967,-1.059C49.277,-0.05 47.222,0.454 44.8,0.454C42.378,0.454 40.322,-0.05 38.632,-1.059C36.942,-2.068 35.643,-3.405 34.735,-5.07C34.18,-6.079 33.802,-7.24 33.6,-8.551C33.398,-9.863 33.297,-11.301 33.297,-12.865L33.297,-25.503ZM41.016,-11.654C41.016,-10.191 41.357,-9.094 42.038,-8.362C42.719,-7.631 43.64,-7.265 44.8,-7.265C45.96,-7.265 46.881,-7.631 47.562,-8.362C48.243,-9.094 48.584,-10.191 48.584,-11.654L48.584,-26.713C48.584,-28.177 48.243,-29.274 47.562,-30.005C46.881,-30.737 45.96,-31.103 44.8,-31.103C43.64,-31.103 42.719,-30.737 42.038,-30.005C41.357,-29.274 41.016,-28.177 41.016,-26.713L41.016,-11.654Z" style="fill:rgb(1,0,0);"/>
                        <path d="M69.697,-12.486C69.697,-10.923 70,-9.661 70.605,-8.703C71.211,-7.744 72.169,-7.265 73.481,-7.265C74.641,-7.265 75.575,-7.706 76.281,-8.589C76.987,-9.472 77.34,-10.62 77.34,-12.032L77.34,-26.941C77.34,-28.151 76.975,-29.148 76.243,-29.93C75.512,-30.712 74.591,-31.103 73.481,-31.103C72.018,-31.103 71.022,-30.649 70.492,-29.74C69.962,-28.832 69.697,-27.773 69.697,-26.562L69.697,-12.486ZM77.34,-0L77.34,-3.481C76.836,-2.926 76.357,-2.409 75.903,-1.93C75.449,-1.45 74.944,-1.034 74.389,-0.681C73.834,-0.328 73.203,-0.05 72.497,0.151C71.791,0.353 70.958,0.454 70,0.454C66.771,0.454 64.526,-0.757 63.265,-3.178C62.811,-4.036 62.483,-5.095 62.281,-6.357C62.079,-7.618 61.978,-9.308 61.978,-11.427L61.978,-26.032C61.978,-28.807 62.054,-30.85 62.205,-32.162C62.508,-34.685 63.694,-36.577 65.762,-37.838C66.721,-38.494 68.158,-38.822 70.076,-38.822C71.589,-38.822 72.939,-38.481 74.124,-37.8C75.31,-37.119 76.331,-36.148 77.189,-34.886L77.34,-34.886L77.34,-53.881L85.059,-53.881L85.059,-0L77.34,-0Z" style="fill:rgb(1,0,0);"/>
                        <path d="M113.74,-16.27L98.454,-16.27L98.454,-11.049C98.454,-9.838 98.794,-8.904 99.476,-8.249C100.157,-7.593 101.077,-7.265 102.238,-7.265C103.701,-7.265 104.672,-7.694 105.151,-8.551C105.63,-9.409 105.921,-10.267 106.021,-11.124L113.74,-11.124C113.74,-7.744 112.706,-5.02 110.638,-2.951C109.629,-1.892 108.418,-1.059 107.005,-0.454C105.593,0.151 104.003,0.454 102.238,0.454C99.816,0.454 97.76,-0.05 96.07,-1.059C94.38,-2.068 93.081,-3.405 92.173,-5.07C91.618,-6.079 91.24,-7.24 91.038,-8.551C90.836,-9.863 90.735,-11.301 90.735,-12.865L90.735,-25.503C90.735,-27.067 90.836,-28.504 91.038,-29.816C91.24,-31.128 91.618,-32.288 92.173,-33.297C93.081,-34.962 94.38,-36.299 96.07,-37.308C97.76,-38.317 99.816,-38.822 102.238,-38.822C104.003,-38.822 105.605,-38.519 107.043,-37.913C108.481,-37.308 109.704,-36.476 110.713,-35.416C112.731,-33.146 113.74,-30.295 113.74,-26.865L113.74,-16.27ZM98.454,-22.324L106.021,-22.324L106.021,-26.713C106.021,-28.177 105.681,-29.274 105,-30.005C104.319,-30.737 103.398,-31.103 102.238,-31.103C101.077,-31.103 100.157,-30.737 99.476,-30.005C98.794,-29.274 98.454,-28.177 98.454,-26.713L98.454,-22.324Z" style="fill:rgb(1,0,0);"/>
                        <path d="M119.416,-0L119.416,-38.368L127.135,-38.368L127.135,-34.281C128.699,-35.694 130.238,-36.804 131.751,-37.611C133.265,-38.418 135.131,-38.822 137.351,-38.822L137.351,-30.649C136.594,-30.951 135.812,-31.103 135.005,-31.103C134.198,-31.103 133.328,-30.964 132.394,-30.686C131.461,-30.409 130.616,-29.942 129.859,-29.286C129.052,-28.631 128.396,-27.773 127.892,-26.713C127.387,-25.654 127.135,-24.342 127.135,-22.778L127.135,-0L119.416,-0Z" style="fill:rgb(1,0,0);"/>
                        <path d="M140.908,-0L140.908,-53.881L152.335,-53.881C156.775,-53.881 160.142,-52.67 162.438,-50.249C164.733,-47.827 165.881,-44.396 165.881,-39.957L165.881,-14.757C165.881,-9.712 164.657,-5.991 162.211,-3.595C159.764,-1.198 156.245,-0 151.654,-0L140.908,-0ZM148.627,-46.616L148.627,-7.265L152.184,-7.265C154.353,-7.265 155.892,-7.807 156.8,-8.892C157.708,-9.977 158.162,-11.679 158.162,-14L158.162,-39.957C158.162,-42.076 157.733,-43.715 156.875,-44.876C156.018,-46.036 154.454,-46.616 152.184,-46.616L148.627,-46.616Z" style="fill:rgb(1,0,0);"/>
                        <path d="M172.011,-25.503C172.011,-27.067 172.111,-28.504 172.313,-29.816C172.515,-31.128 172.893,-32.288 173.448,-33.297C174.357,-34.962 175.656,-36.299 177.346,-37.308C179.036,-38.317 181.092,-38.822 183.513,-38.822C185.935,-38.822 187.991,-38.317 189.681,-37.308C191.371,-36.299 192.67,-34.962 193.578,-33.297C194.133,-32.288 194.511,-31.128 194.713,-29.816C194.915,-28.504 195.016,-27.067 195.016,-25.503L195.016,-12.865C195.016,-11.301 194.915,-9.863 194.713,-8.551C194.511,-7.24 194.133,-6.079 193.578,-5.07C192.67,-3.405 191.371,-2.068 189.681,-1.059C187.991,-0.05 185.935,0.454 183.513,0.454C181.092,0.454 179.036,-0.05 177.346,-1.059C175.656,-2.068 174.357,-3.405 173.448,-5.07C172.893,-6.079 172.515,-7.24 172.313,-8.551C172.111,-9.863 172.011,-11.301 172.011,-12.865L172.011,-25.503ZM179.729,-11.654C179.729,-10.191 180.07,-9.094 180.751,-8.362C181.432,-7.631 182.353,-7.265 183.513,-7.265C184.674,-7.265 185.594,-7.631 186.275,-8.362C186.956,-9.094 187.297,-10.191 187.297,-11.654L187.297,-26.713C187.297,-28.177 186.956,-29.274 186.275,-30.005C185.594,-30.737 184.674,-31.103 183.513,-31.103C182.353,-31.103 181.432,-30.737 180.751,-30.005C180.07,-29.274 179.729,-28.177 179.729,-26.713L179.729,-11.654Z" style="fill:rgb(1,0,0);"/>
                        <path d="M200.692,-38.368L208.411,-38.368L208.411,4.086C208.411,7.87 207.225,10.721 204.854,12.638C202.483,14.555 199.481,15.513 195.848,15.513L195.848,8.249C197.715,8.249 199.002,7.769 199.708,6.811C200.111,6.256 200.376,5.537 200.502,4.654C200.629,3.771 200.692,2.623 200.692,1.211L200.692,-38.368ZM200.692,-46.162L200.692,-53.881L208.411,-53.881L208.411,-46.162L200.692,-46.162Z" style="fill:rgb(1,0,0);"/>
                        <path d="M214.086,-25.503C214.086,-27.067 214.187,-28.504 214.389,-29.816C214.591,-31.128 214.969,-32.288 215.524,-33.297C216.432,-34.962 217.731,-36.299 219.421,-37.308C221.111,-38.317 223.167,-38.822 225.589,-38.822C228.01,-38.822 230.066,-38.317 231.756,-37.308C233.447,-36.299 234.746,-34.962 235.654,-33.297C236.209,-32.288 236.587,-31.128 236.789,-29.816C236.991,-28.504 237.092,-27.067 237.092,-25.503L237.092,-12.865C237.092,-11.301 236.991,-9.863 236.789,-8.551C236.587,-7.24 236.209,-6.079 235.654,-5.07C234.746,-3.405 233.447,-2.068 231.756,-1.059C230.066,-0.05 228.01,0.454 225.589,0.454C223.167,0.454 221.111,-0.05 219.421,-1.059C217.731,-2.068 216.432,-3.405 215.524,-5.07C214.969,-6.079 214.591,-7.24 214.389,-8.551C214.187,-9.863 214.086,-11.301 214.086,-12.865L214.086,-25.503ZM221.805,-11.654C221.805,-10.191 222.146,-9.094 222.827,-8.362C223.508,-7.631 224.429,-7.265 225.589,-7.265C226.749,-7.265 227.67,-7.631 228.351,-8.362C229.032,-9.094 229.373,-10.191 229.373,-11.654L229.373,-26.713C229.373,-28.177 229.032,-29.274 228.351,-30.005C227.67,-30.737 226.749,-31.103 225.589,-31.103C224.429,-31.103 223.508,-30.737 222.827,-30.005C222.146,-29.274 221.805,-28.177 221.805,-26.713L221.805,-11.654Z" style="fill:rgb(1,0,0);"/>
                    </g>
                </g>
            </g>
            <g id="text31">
            </g>
            <g id="text32">
                <g transform="matrix(1.90286,0,0,1.90286,1132.58,940.522)">
                    <path d="M4.114,-46.831L4.114,-53.792L28.953,-53.792L27.845,-68.031L48.096,-68.031L49.204,-53.792L76.891,-53.792L76.891,-46.831L49.678,-46.831L51.023,-29.744L76.891,-29.744L76.891,-22.782L51.577,-22.782L53.159,-1.582L32.908,-1.582L31.326,-22.782L4.114,-22.782L4.114,-29.744L30.772,-29.744L29.427,-46.831L4.114,-46.831Z" style="fill:rgb(7,0,0);"/>
                    <path d="M85.118,-49.046L85.118,-56.007L93.028,-56.007L93.028,-68.031L113.28,-68.031L113.28,-56.007L128.863,-56.007L129.734,-68.031L149.985,-68.031L149.114,-56.007L157.895,-56.007L157.895,-49.046L148.561,-49.046L145.238,-1.582L124.987,-1.582L128.31,-49.046L113.28,-49.046L113.28,-31.009L93.028,-31.009L93.028,-49.046L85.118,-49.046Z" style="fill:rgb(7,0,0);"/>
                    <path d="M166.122,-58.776L166.122,-65.658L238.9,-65.658L238.9,-58.776L166.122,-58.776ZM166.122,-35.677L166.122,-42.559L238.9,-42.559L231.938,-1.582L211.687,-1.582L217.541,-35.677L166.122,-35.677Z" style="fill:rgb(7,0,0);"/>
                    <path d="M271.808,-1.582L296.489,-68.031L319.904,-68.031L295.223,-1.582L271.808,-1.582ZM262.948,-44.299L251.556,-44.299L247.127,-68.031L258.518,-68.031L262.948,-44.299ZM282.249,-44.299L270.858,-44.299L266.428,-68.031L277.82,-68.031L282.249,-44.299ZM300.681,-3.164L302.184,-14.951L310.411,-14.951L308.908,-3.164L300.681,-3.164ZM310.174,-3.164L311.677,-14.951L319.904,-14.951L318.401,-3.164L310.174,-3.164Z" style="fill:rgb(7,0,0);"/>
                </g>
                <g transform="matrix(1.21088,0,0,1.21088,-77.9682,-135.76)">
                    <path d="M1046.29,980.592L1073.29,901.842L1096.54,901.842L1069.54,980.592L1046.29,980.592ZM1038.79,929.967L1015.54,929.967L1010.29,901.842L1033.54,901.842L1038.79,929.967Z" style="fill-rule:nonzero;"/>
                    <path d="M1106.29,910.092L1106.29,901.842L1192.54,901.842L1192.54,910.092L1106.29,910.092ZM1106.29,938.592L1106.29,930.342L1192.54,930.342L1192.54,938.592L1164.23,938.592L1157.29,980.592L1133.29,980.592L1140.23,938.592L1106.29,938.592ZM1169.76,955.467L1171.54,941.498L1181.29,941.498L1179.51,955.467L1169.76,955.467ZM1181.01,955.467L1182.79,941.498L1192.54,941.498L1190.76,955.467L1181.01,955.467Z" style="fill-rule:nonzero;"/>
                    <path d="M1273.16,916.467L1274.95,902.498L1288.45,902.498L1286.66,916.467L1273.16,916.467ZM1256.01,916.467L1257.79,902.498L1271.29,902.498L1269.51,916.467L1256.01,916.467ZM1202.29,925.842L1202.29,917.592L1217.01,917.592L1220.66,901.842L1244.66,901.842L1241.01,917.592L1288.54,917.592L1288.54,980.592L1264.54,980.592L1264.54,925.842L1239.04,925.842L1226.29,980.592L1202.29,980.592L1215.04,925.842L1202.29,925.842Z" style="fill-rule:nonzero;"/>
                    <path d="M1298.29,938.217L1298.29,917.592L1329.41,917.592L1329.41,901.842L1353.41,901.842L1353.41,917.592L1384.54,917.592L1373.66,980.592L1339.16,980.592L1339.16,972.342L1351.07,972.342L1359.13,925.842L1322.29,925.842L1322.29,938.217L1298.29,938.217Z" style="fill-rule:nonzero;"/>
                    <path d="M1394.29,912.811L1394.29,904.654L1480.54,904.654L1480.54,912.811L1394.29,912.811ZM1394.29,940.186L1394.29,932.029L1480.54,932.029L1472.29,980.592L1448.29,980.592L1455.23,940.186L1394.29,940.186Z" style="fill-rule:nonzero;"/>
                </g>
            </g>
        </g>
    </g>
</svg>
